<?xml version="1.0" encoding="UTF-8" standalone="no"?>
<svg
   xmlns:dc="http://purl.org/dc/elements/1.1/"
   xmlns:cc="http://creativecommons.org/ns#"
   xmlns:rdf="http://www.w3.org/1999/02/22-rdf-syntax-ns#"
   xmlns:svg="http://www.w3.org/2000/svg"
   xmlns="http://www.w3.org/2000/svg"
   xmlns:sodipodi="http://sodipodi.sourceforge.net/DTD/sodipodi-0.dtd"
   xmlns:inkscape="http://www.inkscape.org/namespaces/inkscape"
   id="Icons"
   viewBox="0 0 200 200"
   version="1.1"
   sodipodi:docname="doc-icon.svg"
   width="200"
   height="200"
   inkscape:version="0.92.4 (5da689c313, 2019-01-14)">
  <metadata
     id="metadata23">
    <rdf:RDF>
      <cc:Work
         rdf:about="">
        <dc:format>image/svg+xml</dc:format>
        <dc:type
           rdf:resource="http://purl.org/dc/dcmitype/StillImage" />
        <dc:title>document</dc:title>
      </cc:Work>
    </rdf:RDF>
  </metadata>
  <sodipodi:namedview
     pagecolor="#ffffff"
     bordercolor="#666666"
     borderopacity="1"
     objecttolerance="10"
     gridtolerance="10"
     guidetolerance="10"
     inkscape:pageopacity="0"
     inkscape:pageshadow="2"
     inkscape:window-width="1714"
     inkscape:window-height="912"
     id="namedview21"
     showgrid="false"
     inkscape:zoom="2"
     inkscape:cx="59.089744"
     inkscape:cy="90.057074"
     inkscape:window-x="0"
     inkscape:window-y="0"
     inkscape:window-maximized="0"
     inkscape:current-layer="Icons" />
  <defs
     id="defs4">
    <style
       id="style2">.cls-1{fill:#cf5536;}.cls-2{fill:#f3643f;}.cls-3{opacity:0.15;}.cls-4{fill:#fffcf2;}.cls-5{opacity:0.15;}.cls-6{fill:#344e5f;}</style>
  </defs>
  <title
     id="title6">document</title>
  <g
     data-name="Circle Shadow"
     id="Circle_Shadow"
     transform="matrix(3.1935484,0,0,3.09375,-5.3870968,-2.0937496)"
     style="fill:#970105;fill-opacity:1">
    <circle
       style="fill:#970105;fill-opacity:1"
       id="circle8"
       r="31"
       cy="34"
       cx="33"
       class="cls-1" />
  </g>
  <g
     id="Circle"
     transform="matrix(3.1935484,0,0,3.09375,-5.3870968,-2.0937496)"
     style="fill:#b10106;fill-opacity:1">
    <circle
       style="fill:#b10106;fill-opacity:1"
       id="circle11"
       r="31"
       cy="32"
       cx="33"
       class="cls-2" />
  </g>
  <path
     style="opacity:0.15;stroke-width:3.14325309"
     inkscape:connector-curvature="0"
     d="m 57.07871,144.58094 49.56387,47.98406 a 99,95.90625 0 0 0 89.16387,-70.90875 l -63.87097,-61.875 z"
     class="cls-3"
     data-name="Long Shadow"
     id="Long_Shadow" />
  <path
     style="fill:#fffcf2;stroke-width:3.14325309"
     inkscape:connector-curvature="0"
     d="m 61.67742,47.40625 a 6.3870968,6.1875 0 0 0 -6.387097,6.1875 v 86.625 a 6.3870968,6.1875 0 0 0 6.387097,6.1875 h 76.64516 a 6.3870968,6.1875 0 0 0 6.3871,-6.1875 v -68.0625 l -25.54839,-24.75 z"
     class="cls-4"
     data-name="Document"
     id="Document-2" />
  <g
     style="opacity:0.15"
     class="cls-5"
     id="Shading"
     transform="matrix(3.1935484,0,0,3.09375,-5.3870968,-2.0937496)">
    <path
       style="fill:#344e5f"
       inkscape:connector-curvature="0"
       id="path16"
       d="m 39,16 v 8 h 8 z m -4,6 H 24 v 2 H 35 Z M 24,30 H 43 V 28 H 24 Z m 0,6 H 43 V 34 H 24 Z m 0,6 H 39 V 40 H 24 Z"
       class="cls-6" />
  </g>
</svg>
